<svg width="307" height="286" viewBox="0 0 307 286" fill="none" xmlns="http://www.w3.org/2000/svg">
<path d="M107.799 254.9C108.899 260.7 110.899 264.8 113.199 267.9C113.399 268.2 113.599 268.4 113.799 268.7C114.299 269.3 114.799 269.8 115.299 270.3C115.599 270.6 115.799 270.8 116.099 271C118.799 273.4 121.699 274.8 124.199 275.9C130.499 278.6 130.799 285.5 130.799 285.5L81.3994 285.2C81.9994 277 81.9994 261.5 81.9994 261.5C92.2994 258.4 97.2994 256.5 107.799 254.9Z" fill="#030047"/>
<path d="M113.3 267.8C113.5 268.1 113.7 268.3 113.9 268.6C111.9 269.5 109.9 270.5 107.9 271.4C107.3 271.7 106.8 270.8 107.4 270.6C109.3 269.7 111.3 268.8 113.3 267.8Z" fill="white"/>
<path d="M115.399 270.2C115.699 270.5 115.899 270.7 116.199 270.9C113.999 272 111.699 273 109.499 274.1C108.899 274.4 108.399 273.5 108.999 273.3C111.099 272.2 113.299 271.2 115.399 270.2Z" fill="white"/>
<path d="M39.2998 250.3C34.6998 254 31.9998 257.7 30.3998 261.2C30.2998 261.5 30.0998 261.8 29.9998 262.1C29.6998 262.8 29.4998 263.5 29.2998 264.2C29.1998 264.5 29.0998 264.9 28.9998 265.2C28.1998 268.7 28.2998 272 28.4998 274.7C28.9998 281.5 23.0998 285 23.0998 285L0.299805 241.2C7.1998 236.4 13.7998 231.9 19.0998 226.6C26.4998 234.2 32.8998 241.7 39.2998 250.3Z" fill="#030047"/>
<path d="M112.799 147.6C112.799 147.6 100.899 142.6 91.0992 141.3C91.6992 132.7 91.8992 127 91.8992 127L60.2992 129.1C56.8992 148.6 55.4992 176.9 41.0992 201.8C34.5992 213.1 23.3992 222.1 11.6992 232.2C18.1992 241.1 28.5992 252.8 35.1992 261.7C37.0992 258.6 65.2992 243.7 79.6992 205.4C79.2992 236.1 78.1992 267.5 78.1992 267.5L113.999 265.2C113.999 265.2 118.899 200.3 112.799 147.6Z" fill="white"/>
<path d="M77.3997 268.3V267.5C77.3997 267.2 78.3997 238.6 78.8997 209.5C67.0997 237.9 47.8996 252.6 39.5996 259C37.7996 260.4 36.1997 261.6 35.8997 262.1L35.2996 263.1L34.5996 262.2C31.4996 258 27.3996 253.1 23.4996 248.4C19.0996 243 14.4996 237.5 10.9996 232.7L10.5996 232.1L11.0996 231.6C12.2996 230.6 13.4996 229.5 14.6996 228.5C24.8996 219.7 34.4996 211.4 40.2996 201.4C51.8996 181.3 54.9996 159 57.5996 141C58.1996 136.7 58.7997 132.6 59.3997 128.9L59.4996 128.3L92.4996 126.1V126.9C92.4996 127 92.2996 132.4 91.6996 140.5C101.4 141.9 112.8 146.7 112.9 146.8L113.3 147L113.4 147.4C119.4 199.5 114.6 264.4 114.6 265.1V265.8L77.3997 268.3ZM80.4996 201.1L80.3997 205.4C79.9997 233 79.0997 261.5 78.8997 266.7L113.2 264.5C113.7 257.6 117.6 197.3 112 148.2C109.8 147.3 99.4997 143.2 90.8997 142.1L90.1996 142L90.2996 141.3C90.7996 134.7 90.9996 129.7 91.0996 127.9L60.8997 129.9C60.2997 133.5 59.7996 137.3 59.1996 141.4C56.5996 159.5 53.4996 182 41.7996 202.3C35.8996 212.5 26.1997 220.9 15.8997 229.8C14.8997 230.7 13.8996 231.6 12.7996 232.4C16.1996 237 20.5996 242.3 24.7996 247.4C28.4996 251.9 32.2997 256.5 35.3997 260.5C36.0997 259.9 37.1996 259 38.7996 257.8C47.3996 251.2 67.6996 235.6 79.1996 205.1L80.4996 201.1Z" fill="#030047"/>
<path d="M30.4003 261.2C30.3003 261.5 30.1003 261.8 30.0003 262.1C28.2003 260.8 26.5003 259.4 24.7003 258.1C24.2003 257.7 24.7003 256.8 25.2003 257.2C26.9003 258.6 28.6003 259.9 30.4003 261.2Z" fill="white"/>
<path d="M29.2997 264.2C29.1997 264.5 29.0997 264.9 28.9997 265.2C26.9997 263.7 24.9997 262.3 23.0997 260.8C22.5997 260.4 23.0997 259.5 23.5997 259.9C25.4997 261.3 27.3997 262.7 29.2997 264.2Z" fill="white"/>
<path d="M82.0001 200.5C81.9001 200.5 81.8002 200.5 81.7002 200.4C81.3002 200.3 81.1001 199.8 81.3001 199.4C88.4001 181 91.1001 159.6 91.1001 159.4L91.2002 158.8H91.8001C91.9001 158.8 97.4001 158.5 101.1 157.5C101.5 157.4 101.9 157.6 102 158C102.1 158.4 101.9 158.8 101.5 158.9C98.4001 159.7 94.1001 160.1 92.5001 160.2C92.0001 163.9 89.2002 183.1 82.7002 199.9C82.5002 200.3 82.3001 200.5 82.0001 200.5Z" fill="#030047"/>
<path d="M184.4 142.4C181.2 144.7 177.4 145.9 173.7 143.9C167.8 140.6 170.4 133.6 173.6 129.2L169.7 124.3L143.6 145.5L164.8 171.6L190.9 150.4L184.4 142.4Z" fill="#FF3E6C"/>
<path d="M223.8 237.7L195.7 244.9L178 249.5L166.2 203.7L179.5 200.3C178 194.6 181.5 188.8 187.2 187.4C193.9 185.7 198.7 189.4 200.1 195.1L212.1 192L215.2 204L223.8 237.7Z" fill="white"/>
<path d="M177.4 250.4L165.2 203.1L178.5 199.7C178 196.9 178.5 194.2 179.9 191.8C181.4 189.2 183.9 187.3 186.9 186.6C190.1 185.8 193.2 186.1 195.6 187.6C197.9 189 199.6 191.3 200.5 194.1L212.5 191L224.7 238.3L177.4 250.4ZM167.1 204.2L178.5 248.6L222.9 237.2L211.5 192.8L199.6 195.9L199.4 195.3C198.6 192.4 197.1 190.2 194.9 188.9C192.8 187.6 190.2 187.4 187.3 188.1C184.7 188.8 182.6 190.4 181.3 192.6C180 194.9 179.6 197.5 180.2 200.1L180.4 200.8L179.7 201L167.1 204.2Z" fill="#030047"/>
<path d="M187 219.9L181.1 221.5L177.4 222.4L174.9 212.8L184.6 210.3L185.2 212.8L187 219.9Z" fill="#FF3E6C"/>
<path d="M199.1 216.9L193.2 218.5L189.5 219.4L187 209.8L196.7 207.3L197.3 209.8L199.1 216.9Z" fill="#FF3E6C"/>
<path d="M223.8 237.7L195.7 244.9C195 242.1 194.7 239.2 194.7 236.3C194.7 222 203 209.6 215.2 203.8L223.8 237.7Z" fill="white"/>
<path d="M195.1 245.8L194.9 245.1C194.2 242.3 193.8 239.3 193.8 236.3C193.8 222.2 202 209.2 214.7 203.2L215.5 202.8L224.6 238.3L195.1 245.8ZM214.6 204.9C202.9 210.9 195.4 223.1 195.4 236.3C195.4 238.9 195.7 241.5 196.3 244L222.9 237.2L214.6 204.9Z" fill="#030047"/>
<path d="M305.6 152.4L299.1 167.3C292 164.2 284.3 166.2 280.7 174.5C277.6 181.6 280.9 189.8 288 192.9L280.8 209.4L223.8 184.6L240.7 145.8L248.6 127.6L268.4 136.2L275 139.1L297.2 148.8L305.6 152.4Z" fill="white"/>
<path d="M281.2 210.4L222.8 185L248.2 126.6L306.6 152L299.6 168.2L298.8 168C295.3 166.5 291.6 166.3 288.5 167.5C285.4 168.7 283 171.3 281.4 174.9C278.5 181.6 281.6 189.3 288.2 192.3L289 192.5L288.7 193.3L281.2 210.4ZM224.8 184.3L280.5 208.5L287.1 193.4C280.1 190 277 181.5 280.1 174.3C281.8 170.3 284.6 167.5 288 166.1C291.3 164.8 295.1 164.9 298.8 166.4L304.7 152.8L249 128.6L224.8 184.3Z" fill="#030047"/>
<path d="M274.9 162.8C274.9 173.8 267.7 178.9 258.8 178.9C249.9 178.9 242.7 171.7 242.7 162.8C242.7 153.9 249.9 146.7 258.8 146.7C267.7 146.7 274.9 153.9 274.9 162.8Z" fill="white"/>
<path d="M258.8 179.7C249.5 179.7 242 172.1 242 162.9C242 153.7 249.6 146.1 258.8 146.1C268 146.1 275.6 153.7 275.6 162.9C275.6 173.2 269.2 179.7 258.8 179.7ZM258.8 147.5C250.3 147.5 243.5 154.4 243.5 162.8C243.5 171.2 250.4 178.1 258.8 178.1C268.4 178.1 274.1 172.4 274.1 162.8C274.1 154.4 267.2 147.5 258.8 147.5Z" fill="#030047"/>
<path d="M253.8 170.5L251.4 159C251.3 158.6 251.6 158.2 252 158.1C252.4 158 252.8 158.3 252.9 158.7L254.8 167.9L268.2 158.2C268.5 158 269 158 269.2 158.4C269.4 158.7 269.4 159.2 269 159.4L253.8 170.5Z" fill="#FF3E6C"/>
<path d="M297.2 148.8C294.9 150.5 292 151.5 288.9 151.5C281.7 151.5 275.8 146.1 275 139.1L297.2 148.8Z" fill="white"/>
<path d="M288.9 152.2C281.4 152.2 275.1 146.6 274.3 139.2L274.1 137.9L298.7 148.6L297.6 149.4C295.1 151.2 292 152.2 288.9 152.2ZM275.9 140.4C277.2 146.4 282.6 150.8 288.8 150.8C291.2 150.8 293.5 150.2 295.5 149L275.9 140.4Z" fill="#030047"/>
<path d="M202.6 19.9L214.7 12.2L215.9 25.9L202.6 19.9Z" fill="white"/>
<path d="M216.7 27.1L201 20L215.4 10.9L216.7 27.1ZM204.1 19.8L215 24.7L214.1 13.5L204.1 19.8Z" fill="#030047"/>
<path d="M141.5 217.6C141.3 217.6 141.2 217.5 141 217.4C140.7 217.1 140.6 216.7 140.9 216.3L144.2 212C144.5 211.7 144.9 211.6 145.3 211.9C145.6 212.2 145.7 212.6 145.4 213L142.1 217.3C142 217.5 141.8 217.6 141.5 217.6Z" fill="#030047"/>
<path d="M225.2 19.8C224.9 19.8 224.7 19.7 224.6 19.4C224.4 19 224.5 18.6 224.8 18.4L235.8 11.7C236.2 11.5 236.6 11.6 236.8 11.9C237 12.3 236.9 12.7 236.6 12.9L225.6 19.6C225.4 19.8 225.3 19.8 225.2 19.8Z" fill="#030047"/>
<path d="M225.9 108C225.8 108 225.7 108 225.6 107.9C225.2 107.7 225.1 107.3 225.3 106.9L229.9 98C230.1 97.6 230.5 97.5 230.9 97.7C231.3 97.9 231.4 98.3 231.2 98.7L226.6 107.6C226.5 107.8 226.2 108 225.9 108Z" fill="#030047"/>
<path d="M157.1 205.5C157 205.5 156.9 205.5 156.8 205.4L147 201C146.6 200.8 146.5 200.4 146.6 200C146.8 199.6 147.2 199.5 147.6 199.6L157.4 204C157.8 204.2 157.9 204.6 157.8 205C157.6 205.3 157.4 205.5 157.1 205.5Z" fill="#030047"/>
<path d="M213.1 166.1C212.9 166.1 212.6 166 212.5 165.8C212.3 165.5 212.4 165 212.7 164.8L216.6 162.3C217 162.1 217.4 162.2 217.6 162.5C217.8 162.8 217.7 163.3 217.4 163.5L213.5 166C213.4 166 213.2 166.1 213.1 166.1Z" fill="#030047"/>
<path d="M230.6 199.1C230.4 199.1 230.2 199 230.1 198.9L224.7 193.4C224.4 193.1 224.4 192.6 224.7 192.3C225 192 225.5 192 225.8 192.3L231.2 197.8C231.5 198.1 231.5 198.6 231.2 198.9C231 199 230.8 199.1 230.6 199.1Z" fill="#030047"/>
<path d="M253.8 119.6C253.5 119.6 253.2 119.4 253.1 119.1L248.3 107.5C248.1 107.1 248.3 106.7 248.7 106.5C249.1 106.3 249.5 106.5 249.7 106.9L254.5 118.5C254.7 118.9 254.5 119.3 254.1 119.5C254 119.5 253.9 119.6 253.8 119.6Z" fill="#030047"/>
<path d="M218.7 7.70004C218.4 7.70004 218.2 7.60002 218 7.30002L214.6 1.30002C214.4 0.900015 214.5 0.500015 214.9 0.300015C215.3 0.100015 215.7 0.200003 215.9 0.600003L219.3 6.6C219.5 7 219.4 7.4 219 7.6C219 7.7 218.8 7.70004 218.7 7.70004Z" fill="#030047"/>
<path d="M151.9 59.7C146.4 65 137.9 74.8 129.8 78C119.7 82 101.9 60.2 89.2998 61.5L92.4998 83.4C92.4998 83.4 103.1 105.3 122.7 109.6C142.3 113.9 162.3 79.6 162.4 79.5C159.9 73.6 156.6 63.6 151.9 59.7Z" fill="#030047"/>
<path d="M80.6 59.3L79 63.6L97.8 65.8L98.7 57L80.6 59.3Z" fill="#030047"/>
<path d="M95.3998 64.2C84.7998 56 66.8998 66.5 61.5998 82.3C57.5998 94.3 51.7998 153.1 51.7998 153.1L116.1 152.2C116.1 152.2 110.9 88.7999 103.4 78.1C95.8998 67.4 98.9998 66.9 95.3998 64.2Z" fill="#030047"/>
<path d="M109.5 98.3C109.2 98.3 108.8 98.1 108.8 97.7C108.8 97.6 107.5 91.7 104.8 82.5C104.7 82.1 104.9 81.6999 105.3 81.5999C105.7 81.4999 106.1 81.6999 106.2 82.0999C109 91.3999 110.2 97.3 110.2 97.4C110.3 97.8 110 98.2 109.6 98.3H109.5Z" fill="white"/>
<path d="M139.6 71C145.9 59 153.1 58 157.1 58.2C161.1 58.4 160.1 63.4 160.1 63.4L139.6 71Z" fill="white"/>
<path d="M138 72.4L138.9 70.7C143.7 61.6 149.8 57.2 157.1 57.5C158.3 57.6 159.3 58 160 58.9C161.4 60.7 160.8 63.5 160.8 63.6L160.7 64L138 72.4ZM156.4 58.9C150.4 58.9 145.4 62.4 141.2 69.6L159.4 62.8C159.5 62 159.5 60.6 158.8 59.7C158.4 59.2 157.8 58.9 157 58.9C156.9 58.9 156.6 58.9 156.4 58.9Z" fill="#030047"/>
<path d="M221.3 90.9L157.8 102.7L149.7 59.5L145.9 39.2L168 35.1L209.4 27.4L212.5 44C204.6 45.5 199.2 51.6 200.9 60.9C202.4 68.8 210 74 217.8 72.5L221.3 90.9Z" fill="#FF3E6C"/>
<path d="M217.401 89C217.301 89 217.101 89 217.001 88.9L149.401 42.5C149.101 42.3 149.001 41.8 149.201 41.5C149.401 41.2 149.901 41.1 150.201 41.3L217.801 87.7C218.101 87.9 218.201 88.4 218.001 88.7C217.901 88.9 217.701 89 217.401 89Z" fill="white"/>
<path d="M160.4 99.6C160.3 99.6 160.1 99.6 160 99.5C159.7 99.3 159.6 98.8 159.8 98.5L206.2 30.9C206.4 30.6 206.9 30.5 207.2 30.7C207.5 30.9 207.6 31.4 207.4 31.7L161 99.3C160.9 99.5 160.6 99.6 160.4 99.6Z" fill="white"/>
<path d="M146.801 39.8L167.201 36C167.001 46.4 160.101 55.5 150.201 58.5L146.801 39.8Z" fill="white"/>
<path d="M166.5 36.9C165.9 46.3 159.8 54.4 150.9 57.5L147.7 40.4L166.5 36.9ZM168 35.1L145.9 39.2L149.7 59.5C160.2 56.6 168 47 168 35.5C168 35.4 168 35.2 168 35.1Z" fill="#030047"/>
<path d="M165.901 65.8C165.901 65.8 167.901 60.7 162.401 61.4C156.901 62.1 145.601 61.8 134.601 75.4C133.701 76.5 132.701 77.7 131.601 79C137.601 84.3 143.101 90 148.601 95.8C149.701 93.4 150.501 91.3 151.201 89.9C156.501 79.4 169.401 84.8 167.401 73.4C167.401 73.5 170.801 66.5 165.901 65.8Z" fill="white"/>
<path d="M148.901 97.2L148.101 96.4001C143.601 91.6001 137.601 85.3 131.101 79.6L130.601 79.1L131.101 78.5C132.201 77.2 133.301 75.9001 134.101 74.9001C144.101 62.5001 154.301 61.5001 160.401 60.9001C161.101 60.8001 161.801 60.8 162.401 60.7C164.301 60.4 165.701 60.8 166.501 61.8C167.401 62.9 167.201 64.4 167.001 65.3C167.901 65.6 168.501 66.1001 168.901 66.9001C170.101 69.2001 168.701 72.7 168.301 73.7C169.401 80.3 165.501 81.7 161.501 83.2C158.201 84.4 154.401 85.9001 152.101 90.4001C151.601 91.3001 151.101 92.5001 150.501 93.9001C150.201 94.6001 149.801 95.4 149.501 96.3L148.901 97.2ZM132.701 78.9001C138.601 84.2001 144.101 89.9 148.401 94.5C148.601 94 148.801 93.6 149.001 93.2C149.601 91.8 150.101 90.6 150.601 89.6C153.201 84.6 157.401 83 160.901 81.7C165.001 80.2 167.701 79.2 166.701 73.6V73.4001L166.801 73.2C167.301 72.2 168.401 69.1 167.501 67.6C167.201 67 166.701 66.7 165.801 66.6L164.901 66.5L165.201 65.6C165.401 65.1 165.801 63.5 165.201 62.8C164.701 62.1 163.501 62.1 162.501 62.3C161.901 62.4 161.201 62.5 160.501 62.5C154.601 63.1 144.801 64.1 135.201 76C134.501 76.8 133.601 77.8001 132.701 78.9001Z" fill="#030047"/>
<path d="M133.1 77.3C124.7 87.5 106.7 106.7 93.0002 97.6C78.3002 87.8 76.3002 77.2 76.3002 77.2L65.4002 77.5C56.1002 97.6 63.1002 130.2 103.6 127.6C135.3 125.5 144.9 105.1 149.5 94.4C144.2 88.4 138.6 82.9 133.1 77.3Z" fill="#030047"/>
<path d="M103.1 99C89.3999 99 80.3999 89.2 78.2999 81.3C78.1999 80.9 78.3999 80.5 78.7999 80.4C79.1999 80.3 79.5999 80.5 79.6999 80.9C81.8999 89.4 92.8999 100.3 109.3 96.8C120.8 94.3 130 79.7 130.1 79.6C130.3 79.2 130.8 79.1 131.1 79.4C131.5 79.6 131.6 80.1 131.3 80.4C130.9 81 121.7 95.7 109.5 98.3C107.3 98.8 105.1 99 103.1 99Z" fill="white"/>
<path d="M165.801 73.2C161.701 73.3 157.901 74.3 154.201 76.2C153.601 76.5 154.101 77.4 154.701 77.1C158.201 75.3 161.801 74.3 165.801 74.2C166.401 74.2 166.401 73.2 165.801 73.2Z" fill="#030047"/>
<path d="M163.1 66.5C159.9 66.7 156.8 67.4 153.8 68.7C153.2 68.9 153.5 69.9 154.1 69.7C157 68.5 160 67.8 163.1 67.6C163.7 67.4 163.8 66.4 163.1 66.5Z" fill="#030047"/>
<path d="M106 127.7C88.6001 127.7 74.2 115.3 67.6 102.7C67.4 102.3 67.6001 101.9 67.9001 101.7C68.3001 101.5 68.7001 101.7 68.9001 102C75.8001 115.2 91.7001 128.3 110.5 125.9C110.9 125.8 111.3 126.1 111.3 126.5C111.4 126.9 111.1 127.3 110.7 127.3C109.1 127.6 107.5 127.7 106 127.7Z" fill="white"/>
<path d="M292.4 25.3V89.9H227.8V71.2C219.8 71.2 213.3 64.7 213.3 56.7C213.3 47.3 219.8 42.2 227.8 42.2V25.3H292.4Z" fill="white"/>
<path d="M293.099 90.6H226.999V71.9C218.899 71.5 212.399 64.8 212.399 56.7C212.399 47.8 218.199 41.8 226.999 41.5V24.6H293.099V90.6ZM228.499 89.1H291.599V26H228.499V42.9H227.699C219.299 42.9 213.899 48.3 213.899 56.7C213.899 64.3 220.099 70.5 227.699 70.5H228.499V71.3V89.1Z" fill="#030047"/>
<path d="M260.799 41.1H240.499C240.099 41.1 239.699 40.8 239.699 40.3C239.699 39.8 239.999 39.5 240.499 39.5H260.799C261.199 39.5 261.599 39.8 261.599 40.3C261.599 40.8 261.199 41.1 260.799 41.1Z" fill="#030047"/>
<path d="M260.799 48.1H240.499C240.099 48.1 239.699 47.8 239.699 47.3C239.699 46.8 239.999 46.5 240.499 46.5H260.799C261.199 46.5 261.599 46.8 261.599 47.3C261.599 47.8 261.199 48.1 260.799 48.1Z" fill="#030047"/>
<path d="M292.399 53.3V89.8H261.999C259.399 85.9 257.899 81.2 257.899 76.2C257.899 60 268.999 51.4 282.699 51.4C286.199 51.4 289.399 52.1 292.399 53.3Z" fill="white"/>
<path d="M293.099 90.6H261.599L261.399 90.3C258.699 86.1 257.199 81.3 257.199 76.3C257.199 61 267.499 50.7 282.799 50.7C286.199 50.7 289.599 51.4 292.699 52.7L293.199 52.9V90.6H293.099ZM262.399 89.1H291.599V53.8C288.799 52.7 285.799 52.1 282.799 52.1C268.199 52.1 258.699 61.6 258.699 76.2C258.699 80.8 259.999 85.3 262.399 89.1Z" fill="#030047"/>
<path d="M101.199 40.2C97.8994 32.9 89.8994 29.4 83.3994 32.4C76.8994 35.4 74.1994 43.7 77.4994 51C77.4994 51 77.4994 51 77.4994 51.1C76.7994 51.4 76.1994 51.8 75.7994 52.2C72.4994 55 73.1994 59.1 76.3994 60.5C79.1994 61.7 83.0994 61.5 85.4994 58.6C88.6994 59.8 92.1994 59.9 95.2994 58.8C104.899 55.4 104.499 47.5 101.199 40.2Z" fill="white"/>
<path d="M79.6996 61.9C78.3996 61.9 77.0996 61.6 75.9996 61.1C74.2996 60.3 73.1996 58.9 72.8996 57.1C72.5996 55.1 73.4996 53.1 75.2996 51.5C75.6996 51.2 76.0996 50.9 76.5996 50.6C73.4996 43 76.2996 34.6 83.0996 31.6C86.4996 30.1 90.2996 30.1 93.7996 31.7C97.2996 33.3 100.2 36.1 101.9 39.8C104.3 45.1 104.7 49.5 103.3 53C102.1 55.9 99.4996 58.1 95.6996 59.4C92.5996 60.5 89.0996 60.5 85.7996 59.4C83.9996 61.2 81.7996 61.9 79.6996 61.9ZM88.2996 32.1C86.6996 32.1 85.1996 32.4 83.6996 33.1C77.4996 35.9 75.0996 43.8 78.1996 50.7L78.4996 51.3L77.8996 51.7C77.2996 52 76.6996 52.4 76.2996 52.7C74.8996 53.9 74.1996 55.4 74.4996 56.9C74.6996 58.2 75.4996 59.2 76.6996 59.7C79.0996 60.8 82.6996 60.7 84.9996 58L85.2996 57.6L85.7996 57.8C88.7996 59 92.0996 59.1 95.0996 58C98.4996 56.8 100.8 54.9 101.9 52.4C103.2 49.3 102.8 45.3 100.6 40.4C99.0996 37 96.4996 34.4 93.2996 33C91.5996 32.4 89.8996 32.1 88.2996 32.1Z" fill="#030047"/>
<path d="M91.8595 45.5218C92.4116 45.5055 92.8459 45.0447 92.8296 44.4926C92.8132 43.9406 92.3524 43.5063 91.8004 43.5226C91.2483 43.5389 90.814 43.9997 90.8304 44.5518C90.8467 45.1038 91.3075 45.5381 91.8595 45.5218Z" fill="#030047"/>
<path d="M100.199 45.4C98.9994 43.5 97.5994 41.8 95.8994 40.3C95.3994 39.9 94.6994 40.6 95.1994 41C96.7994 42.4 98.1994 44.1 99.3994 45.9C99.6994 46.5 100.499 45.9 100.199 45.4Z" fill="#030047"/>
<path d="M91.5995 34.3C89.3995 36.7 78.4995 42.1 82.5995 47.5C83.5995 48.9 84.7995 49.4 83.6995 50.8C82.3995 52 81.1995 50.5 81.1995 50.5C79.1995 51 76.9995 51.7 75.8995 52.7C70.5995 48.1 70.5995 42.3 72.9995 40.4C72.9995 40.4 86.9995 20.3 93.4995 25.6C99.1995 30.4 91.5995 34.3 91.5995 34.3Z" fill="#030047"/>
<path d="M82.6993 54.2C80.5993 53.2 77.9993 53.8 76.4993 55.6C76.0993 56.1 76.7993 56.8 77.1993 56.3C78.3993 54.8 80.3993 54.2 82.1993 55.1C82.7993 55.4 83.2993 54.5 82.6993 54.2Z" fill="#030047"/>
</svg>
