<svg width="1440" height="1024" viewBox="0 0 1440 1024" fill="none" xmlns="http://www.w3.org/2000/svg">
<g clip-path="url(#clip0)">
<rect width="1440" height="1024" fill="black"/>
<path fill-rule="evenodd" clip-rule="evenodd" d="M-125.153 -25L-86.5837 13.569L-48.1612 -24.8535L-47.6555 -24.3478L-47.0033 -25L-8.43428 13.569L29.9882 -24.8535L30.2654 -24.5763L30.6892 -25L69.2581 13.5689L107.68 -24.8535L107.729 -24.8047L107.925 -25L146.494 13.569L184.916 -24.8535L184.965 -24.8048L185.16 -25L223.729 13.569L262.152 -24.8535L262.2 -24.8049L262.395 -25L300.964 13.5689L339.387 -24.8535L339.435 -24.8047L339.631 -25L378.2 13.5689L416.622 -24.8535L416.671 -24.8047L416.866 -25L455.435 13.5689L493.857 -24.8535L493.906 -24.8048L494.101 -25L532.67 13.5689L571.093 -24.8535L571.142 -24.8045L571.337 -25L609.906 13.5689L648.328 -24.8535L648.377 -24.8048L648.572 -25L687.141 13.5689L725.564 -24.8535L725.612 -24.8048L725.807 -25L764.376 13.5689L802.799 -24.8535L802.848 -24.8045L803.043 -25L841.612 13.5689L880.034 -24.8535L880.083 -24.8048L880.278 -25L918.847 13.5689L957.27 -24.8535L957.318 -24.8046L957.514 -25L996.083 13.5689L1034.51 -24.8535L1034.55 -24.8046L1034.75 -25L1073.32 13.5689L1111.74 -24.8535L1111.79 -24.8048L1111.98 -25L1150.55 13.5689L1188.98 -24.8535L1189.02 -24.8046L1189.22 -25L1227.79 13.5689L1266.21 -24.8535L1266.26 -24.8044L1266.46 -25L1305.02 13.5689L1343.45 -24.8535L1343.5 -24.8048L1343.69 -25L1382.26 13.5689L1420.68 -24.8535L1420.73 -24.8048L1420.93 -25L1459.49 13.5689L1497.92 -24.8535L1497.97 -24.8048L1498.16 -25L1536.73 13.5689L1575.15 -24.8535L1580 -20.0061L1536.7 23.297L1531.85 18.4496L1531.88 18.4163L1498.11 -15.3539L1459.46 23.297L1454.61 18.4496L1454.65 18.4162L1420.88 -15.3539L1382.23 23.297L1377.38 18.4496L1377.41 18.4162L1343.64 -15.3539L1304.99 23.297L1300.14 18.4496L1300.18 18.4162L1266.41 -15.3543L1227.76 23.297L1222.91 18.4496L1222.94 18.4162L1189.17 -15.3541L1150.52 23.297L1145.67 18.4496L1145.71 18.4162L1111.94 -15.3539L1073.28 23.297L1068.44 18.4496L1068.47 18.4162L1034.7 -15.3541L996.049 23.297L991.202 18.4496L991.235 18.4162L957.465 -15.3542L918.814 23.297L913.966 18.4496L914 18.4162L880.23 -15.354L841.579 23.297L836.731 18.4496L836.765 18.4163L802.994 -15.3542L764.343 23.297L759.496 18.4496L759.529 18.4163L725.759 -15.3539L687.108 23.297L682.26 18.4496L682.294 18.4162L648.524 -15.354L609.873 23.297L605.025 18.4496L605.059 18.4162L571.288 -15.3542L532.637 23.297L527.789 18.4496L527.823 18.4163L494.053 -15.3539L455.402 23.297L450.554 18.4496L450.588 18.4162L416.817 -15.3541L378.166 23.297L373.319 18.4496L373.352 18.4162L339.582 -15.3541L300.931 23.297L296.083 18.4496L296.117 18.4163L262.347 -15.3539L223.696 23.297L218.848 18.4496L218.882 18.4163L185.111 -15.354L146.46 23.297L141.613 18.4496L141.646 18.4163L107.876 -15.3541L69.2247 23.297L64.3773 18.4496L64.4107 18.4162L30.4119 -15.5825L-8.46758 23.297L-13.3149 18.4496L-13.2816 18.4163L-47.509 -15.811L-86.617 23.297L-91.4643 18.4496L-91.431 18.4163L-130 -20.1526L-125.153 -25Z" fill="#F8F8F8"/>
<path fill-rule="evenodd" clip-rule="evenodd" d="M-134.153 43.297L-95.5837 81.866L-57.1612 43.4435L-56.6555 43.9492L-56.0033 43.297L-17.4343 81.866L20.9882 43.4435L21.2654 43.7207L21.6892 43.297L60.2581 81.8659L98.6805 43.4435L98.7293 43.4923L98.9247 43.297L137.494 81.866L175.916 43.4435L175.965 43.4922L176.16 43.297L214.729 81.866L253.152 43.4435L253.2 43.4921L253.395 43.297L291.964 81.8659L330.387 43.4435L330.435 43.4923L330.631 43.297L369.2 81.8659L407.622 43.4435L407.671 43.4923L407.866 43.297L446.435 81.8659L484.857 43.4435L484.906 43.4922L485.101 43.297L523.67 81.8659L562.093 43.4435L562.142 43.4925L562.337 43.297L600.906 81.8659L639.328 43.4435L639.377 43.4922L639.572 43.297L678.141 81.8659L716.564 43.4435L716.612 43.4922L716.807 43.297L755.376 81.8659L793.799 43.4435L793.848 43.4925L794.043 43.297L832.612 81.8659L871.034 43.4435L871.083 43.4922L871.278 43.297L909.847 81.8659L948.27 43.4435L948.318 43.4924L948.514 43.297L987.083 81.8659L1025.51 43.4435L1025.55 43.4924L1025.75 43.297L1064.32 81.8659L1102.74 43.4435L1102.79 43.4922L1102.98 43.297L1141.55 81.8659L1179.98 43.4435L1180.02 43.4924L1180.22 43.297L1218.79 81.8659L1257.21 43.4435L1257.26 43.4926L1257.46 43.297L1296.02 81.8659L1334.45 43.4435L1334.5 43.4922L1334.69 43.297L1373.26 81.8659L1411.68 43.4435L1411.73 43.4922L1411.93 43.297L1450.49 81.8659L1488.92 43.4435L1488.97 43.4922L1489.16 43.297L1527.73 81.8659L1566.15 43.4435L1571 48.2909L1527.7 91.594L1522.85 86.7466L1522.88 86.7132L1489.11 52.9431L1450.46 91.594L1445.61 86.7466L1445.65 86.7132L1411.88 52.9431L1373.23 91.594L1368.38 86.7466L1368.41 86.7132L1334.64 52.9431L1295.99 91.594L1291.14 86.7466L1291.18 86.7132L1257.41 52.9427L1218.76 91.594L1213.91 86.7466L1213.94 86.7132L1180.17 52.9429L1141.52 91.594L1136.67 86.7466L1136.71 86.7132L1102.94 52.9431L1064.28 91.594L1059.44 86.7466L1059.47 86.7132L1025.7 52.9429L987.049 91.594L982.202 86.7466L982.235 86.7132L948.465 52.9428L909.814 91.594L904.966 86.7466L905 86.7132L871.23 52.943L832.579 91.594L827.731 86.7466L827.765 86.7132L793.994 52.9428L755.343 91.594L750.496 86.7466L750.529 86.7132L716.759 52.943L678.108 91.594L673.26 86.7466L673.294 86.7132L639.524 52.943L600.873 91.594L596.025 86.7466L596.059 86.7132L562.288 52.9428L523.637 91.594L518.789 86.7466L518.823 86.7132L485.053 52.943L446.402 91.594L441.554 86.7466L441.588 86.7132L407.817 52.9429L369.166 91.594L364.319 86.7466L364.352 86.7132L330.582 52.9429L291.931 91.594L287.083 86.7466L287.117 86.7132L253.347 52.9431L214.696 91.594L209.848 86.7466L209.882 86.7133L176.111 52.943L137.46 91.594L132.613 86.7466L132.646 86.7133L98.8758 52.9429L60.2247 91.594L55.3773 86.7466L55.4107 86.7132L21.4119 52.7145L-17.4676 91.594L-22.3149 86.7466L-22.2816 86.7133L-56.509 52.486L-95.617 91.594L-100.464 86.7466L-100.431 86.7133L-139 48.1444L-134.153 43.297Z" fill="#F8F8F8"/>
<path fill-rule="evenodd" clip-rule="evenodd" d="M-134.153 111.594L-95.5837 150.163L-57.1612 111.74L-56.6555 112.246L-56.0033 111.594L-17.4343 150.163L20.9882 111.74L21.2654 112.018L21.6892 111.594L60.2581 150.163L98.6805 111.74L98.7293 111.789L98.9247 111.594L137.494 150.163L175.916 111.74L175.965 111.789L176.16 111.594L214.729 150.163L253.152 111.74L253.2 111.789L253.395 111.594L291.964 150.163L330.387 111.74L330.435 111.789L330.631 111.594L369.2 150.163L407.622 111.74L407.671 111.789L407.866 111.594L446.435 150.163L484.857 111.74L484.906 111.789L485.101 111.594L523.67 150.163L562.093 111.74L562.142 111.789L562.337 111.594L600.906 150.163L639.328 111.74L639.377 111.789L639.572 111.594L678.141 150.163L716.564 111.74L716.612 111.789L716.807 111.594L755.376 150.163L793.799 111.74L793.848 111.789L794.043 111.594L832.612 150.163L871.034 111.74L871.083 111.789L871.278 111.594L909.847 150.163L948.27 111.74L948.318 111.789L948.514 111.594L987.083 150.163L1025.51 111.74L1025.55 111.789L1025.75 111.594L1064.32 150.163L1102.74 111.74L1102.79 111.789L1102.98 111.594L1141.55 150.163L1179.98 111.74L1180.02 111.789L1180.22 111.594L1218.79 150.163L1257.21 111.74L1257.26 111.79L1257.46 111.594L1296.02 150.163L1334.45 111.74L1334.5 111.789L1334.69 111.594L1373.26 150.163L1411.68 111.74L1411.73 111.789L1411.93 111.594L1450.49 150.163L1488.92 111.74L1488.97 111.789L1489.16 111.594L1527.73 150.163L1566.15 111.74L1571 116.588L1527.7 159.891L1522.85 155.044L1522.88 155.01L1489.11 121.24L1450.46 159.891L1445.61 155.044L1445.65 155.01L1411.88 121.24L1373.23 159.891L1368.38 155.044L1368.41 155.01L1334.64 121.24L1295.99 159.891L1291.14 155.044L1291.18 155.01L1257.41 121.24L1218.76 159.891L1213.91 155.044L1213.94 155.01L1180.17 121.24L1141.52 159.891L1136.67 155.044L1136.71 155.01L1102.94 121.24L1064.28 159.891L1059.44 155.044L1059.47 155.01L1025.7 121.24L987.049 159.891L982.202 155.044L982.235 155.01L948.465 121.24L909.814 159.891L904.966 155.044L905 155.01L871.23 121.24L832.579 159.891L827.731 155.044L827.765 155.01L793.994 121.24L755.343 159.891L750.496 155.044L750.529 155.01L716.759 121.24L678.108 159.891L673.26 155.044L673.294 155.01L639.524 121.24L600.873 159.891L596.025 155.044L596.059 155.01L562.288 121.24L523.637 159.891L518.789 155.044L518.823 155.01L485.053 121.24L446.402 159.891L441.554 155.044L441.588 155.01L407.817 121.24L369.166 159.891L364.319 155.044L364.352 155.01L330.582 121.24L291.931 159.891L287.083 155.044L287.117 155.01L253.347 121.24L214.696 159.891L209.848 155.044L209.882 155.01L176.111 121.24L137.46 159.891L132.613 155.044L132.646 155.01L98.8758 121.24L60.2247 159.891L55.3773 155.044L55.4107 155.01L21.4119 121.011L-17.4676 159.891L-22.3149 155.044L-22.2816 155.01L-56.509 120.783L-95.617 159.891L-100.464 155.044L-100.431 155.01L-139 116.441L-134.153 111.594Z" fill="#F8F8F8"/>
<path fill-rule="evenodd" clip-rule="evenodd" d="M-134.153 179.891L-95.5837 218.46L-57.1612 180.037L-56.6555 180.543L-56.0033 179.891L-17.4343 218.46L20.9882 180.037L21.2654 180.315L21.6892 179.891L60.2581 218.46L98.6805 180.037L98.7293 180.086L98.9247 179.891L137.494 218.46L175.916 180.037L175.965 180.086L176.16 179.891L214.729 218.46L253.152 180.037L253.2 180.086L253.395 179.891L291.964 218.46L330.387 180.037L330.435 180.086L330.631 179.891L369.2 218.46L407.622 180.037L407.671 180.086L407.866 179.891L446.435 218.46L484.857 180.037L484.906 180.086L485.101 179.891L523.67 218.46L562.093 180.037L562.142 180.086L562.337 179.891L600.906 218.46L639.328 180.037L639.377 180.086L639.572 179.891L678.141 218.46L716.564 180.037L716.612 180.086L716.807 179.891L755.376 218.46L793.799 180.037L793.848 180.086L794.043 179.891L832.612 218.46L871.034 180.037L871.083 180.086L871.278 179.891L909.847 218.46L948.27 180.037L948.318 180.086L948.514 179.891L987.083 218.46L1025.51 180.037L1025.55 180.086L1025.75 179.891L1064.32 218.46L1102.74 180.037L1102.79 180.086L1102.98 179.891L1141.55 218.46L1179.98 180.037L1180.02 180.086L1180.22 179.891L1218.79 218.46L1257.21 180.037L1257.26 180.087L1257.46 179.891L1296.02 218.46L1334.45 180.037L1334.5 180.086L1334.69 179.891L1373.26 218.46L1411.68 180.037L1411.73 180.086L1411.93 179.891L1450.49 218.46L1488.92 180.037L1488.97 180.086L1489.16 179.891L1527.73 218.46L1566.15 180.037L1571 184.885L1527.7 228.188L1522.85 223.341L1522.88 223.307L1489.11 189.537L1450.46 228.188L1445.61 223.341L1445.65 223.307L1411.88 189.537L1373.23 228.188L1368.38 223.341L1368.41 223.307L1334.64 189.537L1295.99 228.188L1291.14 223.341L1291.18 223.307L1257.41 189.537L1218.76 228.188L1213.91 223.341L1213.94 223.307L1180.17 189.537L1141.52 228.188L1136.67 223.341L1136.71 223.307L1102.94 189.537L1064.28 228.188L1059.44 223.341L1059.47 223.307L1025.7 189.537L987.049 228.188L982.202 223.341L982.235 223.307L948.465 189.537L909.814 228.188L904.966 223.341L905 223.307L871.23 189.537L832.579 228.188L827.731 223.341L827.765 223.307L793.994 189.537L755.343 228.188L750.496 223.341L750.529 223.307L716.759 189.537L678.108 228.188L673.26 223.341L673.294 223.307L639.524 189.537L600.873 228.188L596.025 223.341L596.059 223.307L562.288 189.537L523.637 228.188L518.789 223.341L518.823 223.307L485.053 189.537L446.402 228.188L441.554 223.341L441.588 223.307L407.817 189.537L369.166 228.188L364.319 223.341L364.352 223.307L330.582 189.537L291.931 228.188L287.083 223.341L287.117 223.307L253.347 189.537L214.696 228.188L209.848 223.341L209.882 223.307L176.111 189.537L137.46 228.188L132.613 223.341L132.646 223.307L98.8758 189.537L60.2247 228.188L55.3773 223.341L55.4107 223.307L21.4119 189.308L-17.4676 228.188L-22.3149 223.341L-22.2816 223.307L-56.509 189.08L-95.617 228.188L-100.464 223.341L-100.431 223.307L-139 184.738L-134.153 179.891Z" fill="#F8F8F8"/>
<path fill-rule="evenodd" clip-rule="evenodd" d="M-134.153 248.188L-95.5837 286.757L-57.1612 248.334L-56.6555 248.84L-56.0033 248.188L-17.4343 286.757L20.9882 248.334L21.2654 248.612L21.6892 248.188L60.2581 286.757L98.6805 248.334L98.7293 248.383L98.9247 248.188L137.494 286.757L175.916 248.334L175.965 248.383L176.16 248.188L214.729 286.757L253.152 248.334L253.2 248.383L253.395 248.188L291.964 286.757L330.387 248.334L330.435 248.383L330.631 248.188L369.2 286.757L407.622 248.334L407.671 248.383L407.866 248.188L446.435 286.757L484.857 248.334L484.906 248.383L485.101 248.188L523.67 286.757L562.093 248.334L562.142 248.383L562.337 248.188L600.906 286.757L639.328 248.334L639.377 248.383L639.572 248.188L678.141 286.757L716.564 248.334L716.612 248.383L716.807 248.188L755.376 286.757L793.799 248.334L793.848 248.383L794.043 248.188L832.612 286.757L871.034 248.334L871.083 248.383L871.278 248.188L909.847 286.757L948.27 248.334L948.318 248.383L948.514 248.188L987.083 286.757L1025.51 248.334L1025.55 248.383L1025.75 248.188L1064.32 286.757L1102.74 248.334L1102.79 248.383L1102.98 248.188L1141.55 286.757L1179.98 248.334L1180.02 248.383L1180.22 248.188L1218.79 286.757L1257.21 248.334L1257.26 248.384L1257.46 248.188L1296.02 286.757L1334.45 248.334L1334.5 248.383L1334.69 248.188L1373.26 286.757L1411.68 248.334L1411.73 248.383L1411.93 248.188L1450.49 286.757L1488.92 248.334L1488.97 248.383L1489.16 248.188L1527.73 286.757L1566.15 248.334L1571 253.182L1527.7 296.485L1522.85 291.638L1522.88 291.604L1489.11 257.834L1450.46 296.485L1445.61 291.638L1445.65 291.604L1411.88 257.834L1373.23 296.485L1368.38 291.638L1368.41 291.604L1334.64 257.834L1295.99 296.485L1291.14 291.638L1291.18 291.604L1257.41 257.834L1218.76 296.485L1213.91 291.638L1213.94 291.604L1180.17 257.834L1141.52 296.485L1136.67 291.638L1136.71 291.604L1102.94 257.834L1064.28 296.485L1059.44 291.638L1059.47 291.604L1025.7 257.834L987.049 296.485L982.202 291.638L982.235 291.604L948.465 257.834L909.814 296.485L904.966 291.638L905 291.604L871.23 257.834L832.579 296.485L827.731 291.638L827.765 291.604L793.994 257.834L755.343 296.485L750.496 291.638L750.529 291.604L716.759 257.834L678.108 296.485L673.26 291.638L673.294 291.604L639.524 257.834L600.873 296.485L596.025 291.638L596.059 291.604L562.288 257.834L523.637 296.485L518.789 291.638L518.823 291.604L485.053 257.834L446.402 296.485L441.554 291.638L441.588 291.604L407.817 257.834L369.166 296.485L364.319 291.638L364.352 291.604L330.582 257.834L291.931 296.485L287.083 291.638L287.117 291.604L253.347 257.834L214.696 296.485L209.848 291.638L209.882 291.604L176.111 257.834L137.46 296.485L132.613 291.638L132.646 291.604L98.8758 257.834L60.2247 296.485L55.3773 291.638L55.4107 291.604L21.4119 257.605L-17.4676 296.485L-22.3149 291.638L-22.2816 291.604L-56.509 257.377L-95.617 296.485L-100.464 291.638L-100.431 291.604L-139 253.035L-134.153 248.188Z" fill="#F8F8F8"/>
<path fill-rule="evenodd" clip-rule="evenodd" d="M-134.153 316.485L-95.5837 355.054L-57.1612 316.631L-56.6555 317.137L-56.0033 316.485L-17.4343 355.054L20.9882 316.631L21.2654 316.909L21.6892 316.485L60.2581 355.054L98.6805 316.631L98.7293 316.68L98.9247 316.485L137.494 355.054L175.916 316.631L175.965 316.68L176.16 316.485L214.729 355.054L253.152 316.631L253.2 316.68L253.395 316.485L291.964 355.054L330.387 316.631L330.435 316.68L330.631 316.485L369.2 355.054L407.622 316.631L407.671 316.68L407.866 316.485L446.435 355.054L484.857 316.631L484.906 316.68L485.101 316.485L523.67 355.054L562.093 316.631L562.142 316.68L562.337 316.485L600.906 355.054L639.328 316.631L639.377 316.68L639.572 316.485L678.141 355.054L716.564 316.631L716.612 316.68L716.807 316.485L755.376 355.054L793.799 316.631L793.848 316.68L794.043 316.485L832.612 355.054L871.034 316.631L871.083 316.68L871.278 316.485L909.847 355.054L948.27 316.631L948.318 316.68L948.514 316.485L987.083 355.054L1025.51 316.631L1025.55 316.68L1025.75 316.485L1064.32 355.054L1102.74 316.631L1102.79 316.68L1102.98 316.485L1141.55 355.054L1179.98 316.631L1180.02 316.68L1180.22 316.485L1218.79 355.054L1257.21 316.631L1257.26 316.681L1257.46 316.485L1296.02 355.054L1334.45 316.631L1334.5 316.68L1334.69 316.485L1373.26 355.054L1411.68 316.631L1411.73 316.68L1411.93 316.485L1450.49 355.054L1488.92 316.631L1488.97 316.68L1489.16 316.485L1527.73 355.054L1566.15 316.631L1571 321.479L1527.7 364.782L1522.85 359.935L1522.88 359.901L1489.11 326.131L1450.46 364.782L1445.61 359.935L1445.65 359.901L1411.88 326.131L1373.23 364.782L1368.38 359.935L1368.41 359.901L1334.64 326.131L1295.99 364.782L1291.14 359.935L1291.18 359.901L1257.41 326.131L1218.76 364.782L1213.91 359.935L1213.94 359.901L1180.17 326.131L1141.52 364.782L1136.67 359.935L1136.71 359.901L1102.94 326.131L1064.28 364.782L1059.44 359.935L1059.47 359.901L1025.7 326.131L987.049 364.782L982.202 359.935L982.235 359.901L948.465 326.131L909.814 364.782L904.966 359.935L905 359.901L871.23 326.131L832.579 364.782L827.731 359.935L827.765 359.901L793.994 326.131L755.343 364.782L750.496 359.935L750.529 359.901L716.759 326.131L678.108 364.782L673.26 359.935L673.294 359.901L639.524 326.131L600.873 364.782L596.025 359.935L596.059 359.901L562.288 326.131L523.637 364.782L518.789 359.935L518.823 359.901L485.053 326.131L446.402 364.782L441.554 359.935L441.588 359.901L407.817 326.131L369.166 364.782L364.319 359.935L364.352 359.901L330.582 326.131L291.931 364.782L287.083 359.935L287.117 359.901L253.347 326.131L214.696 364.782L209.848 359.935L209.882 359.901L176.111 326.131L137.46 364.782L132.613 359.935L132.646 359.901L98.8758 326.131L60.2247 364.782L55.3773 359.935L55.4107 359.901L21.4119 325.902L-17.4676 364.782L-22.3149 359.935L-22.2816 359.901L-56.509 325.674L-95.617 364.782L-100.464 359.935L-100.431 359.901L-139 321.332L-134.153 316.485Z" fill="#F8F8F8"/>
<path fill-rule="evenodd" clip-rule="evenodd" d="M-134.153 384.782L-95.5837 423.351L-57.1612 384.928L-56.6555 385.434L-56.0033 384.782L-17.4343 423.351L20.9882 384.928L21.2654 385.206L21.6892 384.782L60.2581 423.351L98.6805 384.928L98.7293 384.977L98.9247 384.782L137.494 423.351L175.916 384.928L175.965 384.977L176.16 384.782L214.729 423.351L253.152 384.928L253.2 384.977L253.395 384.782L291.964 423.351L330.387 384.928L330.435 384.977L330.631 384.782L369.2 423.351L407.622 384.928L407.671 384.977L407.866 384.782L446.435 423.351L484.857 384.928L484.906 384.977L485.101 384.782L523.67 423.351L562.093 384.928L562.142 384.977L562.337 384.782L600.906 423.351L639.328 384.928L639.377 384.977L639.572 384.782L678.141 423.351L716.564 384.928L716.612 384.977L716.807 384.782L755.376 423.351L793.799 384.928L793.848 384.977L794.043 384.782L832.612 423.351L871.034 384.928L871.083 384.977L871.278 384.782L909.847 423.351L948.27 384.928L948.318 384.977L948.514 384.782L987.083 423.351L1025.51 384.928L1025.55 384.977L1025.75 384.782L1064.32 423.351L1102.74 384.928L1102.79 384.977L1102.98 384.782L1141.55 423.351L1179.98 384.928L1180.02 384.977L1180.22 384.782L1218.79 423.351L1257.21 384.928L1257.26 384.978L1257.46 384.782L1296.02 423.351L1334.45 384.928L1334.5 384.977L1334.69 384.782L1373.26 423.351L1411.68 384.928L1411.73 384.977L1411.93 384.782L1450.49 423.351L1488.92 384.928L1488.97 384.977L1489.16 384.782L1527.73 423.351L1566.15 384.928L1571 389.776L1527.7 433.079L1522.85 428.232L1522.88 428.198L1489.11 394.428L1450.46 433.079L1445.61 428.232L1445.65 428.198L1411.88 394.428L1373.23 433.079L1368.38 428.232L1368.41 428.198L1334.64 394.428L1295.99 433.079L1291.14 428.232L1291.18 428.198L1257.41 394.428L1218.76 433.079L1213.91 428.232L1213.94 428.198L1180.17 394.428L1141.52 433.079L1136.67 428.232L1136.71 428.198L1102.94 394.428L1064.28 433.079L1059.44 428.232L1059.47 428.198L1025.7 394.428L987.049 433.079L982.202 428.232L982.235 428.198L948.465 394.428L909.814 433.079L904.966 428.232L905 428.198L871.23 394.428L832.579 433.079L827.731 428.232L827.765 428.198L793.994 394.428L755.343 433.079L750.496 428.232L750.529 428.198L716.759 394.428L678.108 433.079L673.26 428.232L673.294 428.198L639.524 394.428L600.873 433.079L596.025 428.232L596.059 428.198L562.288 394.428L523.637 433.079L518.789 428.232L518.823 428.198L485.053 394.428L446.402 433.079L441.554 428.232L441.588 428.198L407.817 394.428L369.166 433.079L364.319 428.232L364.352 428.198L330.582 394.428L291.931 433.079L287.083 428.232L287.117 428.198L253.347 394.428L214.696 433.079L209.848 428.232L209.882 428.198L176.111 394.428L137.46 433.079L132.613 428.232L132.646 428.198L98.8758 394.428L60.2247 433.079L55.3773 428.232L55.4107 428.198L21.4119 394.199L-17.4676 433.079L-22.3149 428.232L-22.2816 428.198L-56.509 393.971L-95.617 433.079L-100.464 428.232L-100.431 428.198L-139 389.629L-134.153 384.782Z" fill="#F8F8F8"/>
<path fill-rule="evenodd" clip-rule="evenodd" d="M-134.153 453.079L-95.5837 491.648L-57.1612 453.225L-56.6555 453.731L-56.0033 453.079L-17.4343 491.648L20.9882 453.225L21.2654 453.503L21.6892 453.079L60.2581 491.648L98.6805 453.225L98.7293 453.274L98.9247 453.079L137.494 491.648L175.916 453.225L175.965 453.274L176.16 453.079L214.729 491.648L253.152 453.225L253.2 453.274L253.395 453.079L291.964 491.648L330.387 453.225L330.435 453.274L330.631 453.079L369.2 491.648L407.622 453.225L407.671 453.274L407.866 453.079L446.435 491.648L484.857 453.225L484.906 453.274L485.101 453.079L523.67 491.648L562.093 453.225L562.142 453.274L562.337 453.079L600.906 491.648L639.328 453.225L639.377 453.274L639.572 453.079L678.141 491.648L716.564 453.225L716.612 453.274L716.807 453.079L755.376 491.648L793.799 453.225L793.848 453.274L794.043 453.079L832.612 491.648L871.034 453.225L871.083 453.274L871.278 453.079L909.847 491.648L948.27 453.225L948.318 453.274L948.514 453.079L987.083 491.648L1025.51 453.225L1025.55 453.274L1025.75 453.079L1064.32 491.648L1102.74 453.225L1102.79 453.274L1102.98 453.079L1141.55 491.648L1179.98 453.225L1180.02 453.274L1180.22 453.079L1218.79 491.648L1257.21 453.225L1257.26 453.275L1257.46 453.079L1296.02 491.648L1334.45 453.225L1334.5 453.274L1334.69 453.079L1373.26 491.648L1411.68 453.225L1411.73 453.274L1411.93 453.079L1450.49 491.648L1488.92 453.225L1488.97 453.274L1489.16 453.079L1527.73 491.648L1566.15 453.225L1571 458.073L1527.7 501.376L1522.85 496.529L1522.88 496.495L1489.11 462.725L1450.46 501.376L1445.61 496.529L1445.65 496.495L1411.88 462.725L1373.23 501.376L1368.38 496.529L1368.41 496.495L1334.64 462.725L1295.99 501.376L1291.14 496.529L1291.18 496.495L1257.41 462.725L1218.76 501.376L1213.91 496.529L1213.94 496.495L1180.17 462.725L1141.52 501.376L1136.67 496.529L1136.71 496.495L1102.94 462.725L1064.28 501.376L1059.44 496.529L1059.47 496.495L1025.7 462.725L987.049 501.376L982.202 496.529L982.235 496.495L948.465 462.725L909.814 501.376L904.966 496.529L905 496.495L871.23 462.725L832.579 501.376L827.731 496.529L827.765 496.495L793.994 462.725L755.343 501.376L750.496 496.529L750.529 496.495L716.759 462.725L678.108 501.376L673.26 496.529L673.294 496.495L639.524 462.725L600.873 501.376L596.025 496.529L596.059 496.495L562.288 462.725L523.637 501.376L518.789 496.529L518.823 496.495L485.053 462.725L446.402 501.376L441.554 496.529L441.588 496.495L407.817 462.725L369.166 501.376L364.319 496.529L364.352 496.495L330.582 462.725L291.931 501.376L287.083 496.529L287.117 496.495L253.347 462.725L214.696 501.376L209.848 496.529L209.882 496.495L176.111 462.725L137.46 501.376L132.613 496.529L132.646 496.495L98.8758 462.725L60.2247 501.376L55.3773 496.529L55.4107 496.495L21.4119 462.496L-17.4676 501.376L-22.3149 496.529L-22.2816 496.495L-56.509 462.268L-95.617 501.376L-100.464 496.529L-100.431 496.495L-139 457.926L-134.153 453.079Z" fill="#F8F8F8"/>
<path fill-rule="evenodd" clip-rule="evenodd" d="M-134.153 521.376L-95.5837 559.945L-57.1612 521.522L-56.6555 522.028L-56.0033 521.376L-17.4343 559.945L20.9882 521.522L21.2654 521.8L21.6892 521.376L60.2581 559.945L98.6805 521.522L98.7293 521.571L98.9247 521.376L137.494 559.945L175.916 521.522L175.965 521.571L176.16 521.376L214.729 559.945L253.152 521.522L253.2 521.571L253.395 521.376L291.964 559.945L330.387 521.522L330.435 521.571L330.631 521.376L369.2 559.945L407.622 521.522L407.671 521.571L407.866 521.376L446.435 559.945L484.857 521.522L484.906 521.571L485.101 521.376L523.67 559.945L562.093 521.522L562.142 521.571L562.337 521.376L600.906 559.945L639.328 521.522L639.377 521.571L639.572 521.376L678.141 559.945L716.564 521.522L716.612 521.571L716.807 521.376L755.376 559.945L793.799 521.522L793.848 521.571L794.043 521.376L832.612 559.945L871.034 521.522L871.083 521.571L871.278 521.376L909.847 559.945L948.27 521.522L948.318 521.571L948.514 521.376L987.083 559.945L1025.51 521.522L1025.55 521.571L1025.75 521.376L1064.32 559.945L1102.74 521.522L1102.79 521.571L1102.98 521.376L1141.55 559.945L1179.98 521.522L1180.02 521.571L1180.22 521.376L1218.79 559.945L1257.21 521.522L1257.26 521.572L1257.46 521.376L1296.02 559.945L1334.45 521.522L1334.5 521.571L1334.69 521.376L1373.26 559.945L1411.68 521.522L1411.73 521.571L1411.93 521.376L1450.49 559.945L1488.92 521.522L1488.97 521.571L1489.16 521.376L1527.73 559.945L1566.15 521.522L1571 526.37L1527.7 569.673L1522.85 564.826L1522.88 564.792L1489.11 531.022L1450.46 569.673L1445.61 564.826L1445.65 564.792L1411.88 531.022L1373.23 569.673L1368.38 564.826L1368.41 564.792L1334.64 531.022L1295.99 569.673L1291.14 564.826L1291.18 564.792L1257.41 531.022L1218.76 569.673L1213.91 564.826L1213.94 564.792L1180.17 531.022L1141.52 569.673L1136.67 564.826L1136.71 564.792L1102.94 531.022L1064.28 569.673L1059.44 564.826L1059.47 564.792L1025.7 531.022L987.049 569.673L982.202 564.826L982.235 564.792L948.465 531.022L909.814 569.673L904.966 564.826L905 564.792L871.23 531.022L832.579 569.673L827.731 564.826L827.765 564.792L793.994 531.022L755.343 569.673L750.496 564.826L750.529 564.792L716.759 531.022L678.108 569.673L673.26 564.826L673.294 564.792L639.524 531.022L600.873 569.673L596.025 564.826L596.059 564.792L562.288 531.022L523.637 569.673L518.789 564.826L518.823 564.792L485.053 531.022L446.402 569.673L441.554 564.826L441.588 564.792L407.817 531.022L369.166 569.673L364.319 564.826L364.352 564.792L330.582 531.022L291.931 569.673L287.083 564.826L287.117 564.792L253.347 531.022L214.696 569.673L209.848 564.826L209.882 564.792L176.111 531.022L137.46 569.673L132.613 564.826L132.646 564.792L98.8758 531.022L60.2247 569.673L55.3773 564.826L55.4107 564.792L21.4119 530.793L-17.4676 569.673L-22.3149 564.826L-22.2816 564.792L-56.509 530.565L-95.617 569.673L-100.464 564.826L-100.431 564.792L-139 526.223L-134.153 521.376Z" fill="#F8F8F8"/>
<path fill-rule="evenodd" clip-rule="evenodd" d="M-134.153 589.673L-95.5837 628.242L-57.1612 589.819L-56.6555 590.325L-56.0033 589.673L-17.4343 628.242L20.9882 589.819L21.2654 590.097L21.6892 589.673L60.2581 628.242L98.6805 589.819L98.7293 589.868L98.9247 589.673L137.494 628.242L175.916 589.819L175.965 589.868L176.16 589.673L214.729 628.242L253.152 589.819L253.2 589.868L253.395 589.673L291.964 628.242L330.387 589.819L330.435 589.868L330.631 589.673L369.2 628.242L407.622 589.819L407.671 589.868L407.866 589.673L446.435 628.242L484.857 589.819L484.906 589.868L485.101 589.673L523.67 628.242L562.093 589.819L562.142 589.868L562.337 589.673L600.906 628.242L639.328 589.819L639.377 589.868L639.572 589.673L678.141 628.242L716.564 589.819L716.612 589.868L716.807 589.673L755.376 628.242L793.799 589.819L793.848 589.868L794.043 589.673L832.612 628.242L871.034 589.819L871.083 589.868L871.278 589.673L909.847 628.242L948.27 589.819L948.318 589.868L948.514 589.673L987.083 628.242L1025.51 589.819L1025.55 589.868L1025.75 589.673L1064.32 628.242L1102.74 589.819L1102.79 589.868L1102.98 589.673L1141.55 628.242L1179.98 589.819L1180.02 589.868L1180.22 589.673L1218.79 628.242L1257.21 589.819L1257.26 589.869L1257.46 589.673L1296.02 628.242L1334.45 589.819L1334.5 589.868L1334.69 589.673L1373.26 628.242L1411.68 589.819L1411.73 589.868L1411.93 589.673L1450.49 628.242L1488.92 589.819L1488.97 589.868L1489.16 589.673L1527.73 628.242L1566.15 589.819L1571 594.667L1527.7 637.97L1522.85 633.123L1522.88 633.089L1489.11 599.319L1450.46 637.97L1445.61 633.123L1445.65 633.089L1411.88 599.319L1373.23 637.97L1368.38 633.123L1368.41 633.089L1334.64 599.319L1295.99 637.97L1291.14 633.123L1291.18 633.089L1257.41 599.319L1218.76 637.97L1213.91 633.123L1213.94 633.089L1180.17 599.319L1141.52 637.97L1136.67 633.123L1136.71 633.089L1102.94 599.319L1064.28 637.97L1059.44 633.123L1059.47 633.089L1025.7 599.319L987.049 637.97L982.202 633.123L982.235 633.089L948.465 599.319L909.814 637.97L904.966 633.123L905 633.089L871.23 599.319L832.579 637.97L827.731 633.123L827.765 633.089L793.994 599.319L755.343 637.97L750.496 633.123L750.529 633.089L716.759 599.319L678.108 637.97L673.26 633.123L673.294 633.089L639.524 599.319L600.873 637.97L596.025 633.123L596.059 633.089L562.288 599.319L523.637 637.97L518.789 633.123L518.823 633.089L485.053 599.319L446.402 637.97L441.554 633.123L441.588 633.089L407.817 599.319L369.166 637.97L364.319 633.123L364.352 633.089L330.582 599.319L291.931 637.97L287.083 633.123L287.117 633.089L253.347 599.319L214.696 637.97L209.848 633.123L209.882 633.089L176.111 599.319L137.46 637.97L132.613 633.123L132.646 633.089L98.8758 599.319L60.2247 637.97L55.3773 633.123L55.4107 633.089L21.4119 599.09L-17.4676 637.97L-22.3149 633.123L-22.2816 633.089L-56.509 598.862L-95.617 637.97L-100.464 633.123L-100.431 633.089L-139 594.52L-134.153 589.673Z" fill="#F8F8F8"/>
<path fill-rule="evenodd" clip-rule="evenodd" d="M-134.153 657.97L-95.5837 696.539L-57.1612 658.116L-56.6555 658.622L-56.0033 657.97L-17.4343 696.539L20.9882 658.116L21.2654 658.394L21.6892 657.97L60.2581 696.539L98.6805 658.116L98.7293 658.165L98.9247 657.97L137.494 696.539L175.916 658.116L175.965 658.165L176.16 657.97L214.729 696.539L253.152 658.116L253.2 658.165L253.395 657.97L291.964 696.539L330.387 658.116L330.435 658.165L330.631 657.97L369.2 696.539L407.622 658.116L407.671 658.165L407.866 657.97L446.435 696.539L484.857 658.116L484.906 658.165L485.101 657.97L523.67 696.539L562.093 658.116L562.142 658.165L562.337 657.97L600.906 696.539L639.328 658.116L639.377 658.165L639.572 657.97L678.141 696.539L716.564 658.116L716.612 658.165L716.807 657.97L755.376 696.539L793.799 658.116L793.848 658.165L794.043 657.97L832.612 696.539L871.034 658.116L871.083 658.165L871.278 657.97L909.847 696.539L948.27 658.116L948.318 658.165L948.514 657.97L987.083 696.539L1025.51 658.116L1025.55 658.165L1025.75 657.97L1064.32 696.539L1102.74 658.116L1102.79 658.165L1102.98 657.97L1141.55 696.539L1179.98 658.116L1180.02 658.165L1180.22 657.97L1218.79 696.539L1257.21 658.116L1257.26 658.166L1257.46 657.97L1296.02 696.539L1334.45 658.116L1334.5 658.165L1334.69 657.97L1373.26 696.539L1411.68 658.116L1411.73 658.165L1411.93 657.97L1450.49 696.539L1488.92 658.116L1488.97 658.165L1489.16 657.97L1527.73 696.539L1566.15 658.116L1571 662.964L1527.7 706.267L1522.85 701.42L1522.88 701.386L1489.11 667.616L1450.46 706.267L1445.61 701.42L1445.65 701.386L1411.88 667.616L1373.23 706.267L1368.38 701.42L1368.41 701.386L1334.64 667.616L1295.99 706.267L1291.14 701.42L1291.18 701.386L1257.41 667.616L1218.76 706.267L1213.91 701.42L1213.94 701.386L1180.17 667.616L1141.52 706.267L1136.67 701.42L1136.71 701.386L1102.94 667.616L1064.28 706.267L1059.44 701.42L1059.47 701.386L1025.7 667.616L987.049 706.267L982.202 701.42L982.235 701.386L948.465 667.616L909.814 706.267L904.966 701.42L905 701.386L871.23 667.616L832.579 706.267L827.731 701.42L827.765 701.386L793.994 667.616L755.343 706.267L750.496 701.42L750.529 701.386L716.759 667.616L678.108 706.267L673.26 701.42L673.294 701.386L639.524 667.616L600.873 706.267L596.025 701.42L596.059 701.386L562.288 667.616L523.637 706.267L518.789 701.42L518.823 701.386L485.053 667.616L446.402 706.267L441.554 701.42L441.588 701.386L407.817 667.616L369.166 706.267L364.319 701.42L364.352 701.386L330.582 667.616L291.931 706.267L287.083 701.42L287.117 701.386L253.347 667.616L214.696 706.267L209.848 701.42L209.882 701.386L176.111 667.616L137.46 706.267L132.613 701.42L132.646 701.386L98.8758 667.616L60.2247 706.267L55.3773 701.42L55.4107 701.386L21.4119 667.387L-17.4676 706.267L-22.3149 701.42L-22.2816 701.386L-56.509 667.159L-95.617 706.267L-100.464 701.42L-100.431 701.386L-139 662.817L-134.153 657.97Z" fill="#F8F8F8"/>
<path fill-rule="evenodd" clip-rule="evenodd" d="M-134.153 726.267L-95.5837 764.836L-57.1612 726.413L-56.6555 726.919L-56.0033 726.267L-17.4343 764.836L20.9882 726.413L21.2654 726.691L21.6892 726.267L60.2581 764.836L98.6805 726.413L98.7293 726.462L98.9247 726.267L137.494 764.836L175.916 726.413L175.965 726.462L176.16 726.267L214.729 764.836L253.152 726.413L253.2 726.462L253.395 726.267L291.964 764.836L330.387 726.413L330.435 726.462L330.631 726.267L369.2 764.836L407.622 726.413L407.671 726.462L407.866 726.267L446.435 764.836L484.857 726.413L484.906 726.462L485.101 726.267L523.67 764.836L562.093 726.413L562.142 726.462L562.337 726.267L600.906 764.836L639.328 726.413L639.377 726.462L639.572 726.267L678.141 764.836L716.564 726.413L716.612 726.462L716.807 726.267L755.376 764.836L793.799 726.413L793.848 726.462L794.043 726.267L832.612 764.836L871.034 726.413L871.083 726.462L871.278 726.267L909.847 764.836L948.27 726.413L948.318 726.462L948.514 726.267L987.083 764.836L1025.51 726.413L1025.55 726.462L1025.75 726.267L1064.32 764.836L1102.74 726.413L1102.79 726.462L1102.98 726.267L1141.55 764.836L1179.98 726.413L1180.02 726.462L1180.22 726.267L1218.79 764.836L1257.21 726.413L1257.26 726.463L1257.46 726.267L1296.02 764.836L1334.45 726.413L1334.5 726.462L1334.69 726.267L1373.26 764.836L1411.68 726.413L1411.73 726.462L1411.93 726.267L1450.49 764.836L1488.92 726.413L1488.97 726.462L1489.16 726.267L1527.73 764.836L1566.15 726.413L1571 731.261L1527.7 774.564L1522.85 769.717L1522.88 769.683L1489.11 735.913L1450.46 774.564L1445.61 769.717L1445.65 769.683L1411.88 735.913L1373.23 774.564L1368.38 769.717L1368.41 769.683L1334.64 735.913L1295.99 774.564L1291.14 769.717L1291.18 769.683L1257.41 735.913L1218.76 774.564L1213.91 769.717L1213.94 769.683L1180.17 735.913L1141.52 774.564L1136.67 769.717L1136.71 769.683L1102.94 735.913L1064.28 774.564L1059.44 769.717L1059.47 769.683L1025.7 735.913L987.049 774.564L982.202 769.717L982.235 769.683L948.465 735.913L909.814 774.564L904.966 769.717L905 769.683L871.23 735.913L832.579 774.564L827.731 769.717L827.765 769.683L793.994 735.913L755.343 774.564L750.496 769.717L750.529 769.683L716.759 735.913L678.108 774.564L673.26 769.717L673.294 769.683L639.524 735.913L600.873 774.564L596.025 769.717L596.059 769.683L562.288 735.913L523.637 774.564L518.789 769.717L518.823 769.683L485.053 735.913L446.402 774.564L441.554 769.717L441.588 769.683L407.817 735.913L369.166 774.564L364.319 769.717L364.352 769.683L330.582 735.913L291.931 774.564L287.083 769.717L287.117 769.683L253.347 735.913L214.696 774.564L209.848 769.717L209.882 769.683L176.111 735.913L137.46 774.564L132.613 769.717L132.646 769.683L98.8758 735.913L60.2247 774.564L55.3773 769.717L55.4107 769.683L21.4119 735.684L-17.4676 774.564L-22.3149 769.717L-22.2816 769.683L-56.509 735.456L-95.617 774.564L-100.464 769.717L-100.431 769.683L-139 731.114L-134.153 726.267Z" fill="#F8F8F8"/>
<path fill-rule="evenodd" clip-rule="evenodd" d="M-134.153 794.564L-95.5837 833.133L-57.1612 794.71L-56.6555 795.216L-56.0033 794.564L-17.4343 833.133L20.9882 794.71L21.2654 794.988L21.6892 794.564L60.2581 833.133L98.6805 794.71L98.7293 794.759L98.9247 794.564L137.494 833.133L175.916 794.71L175.965 794.759L176.16 794.564L214.729 833.133L253.152 794.71L253.2 794.759L253.395 794.564L291.964 833.133L330.387 794.71L330.435 794.759L330.631 794.564L369.2 833.133L407.622 794.71L407.671 794.759L407.866 794.564L446.435 833.133L484.857 794.71L484.906 794.759L485.101 794.564L523.67 833.133L562.093 794.71L562.142 794.759L562.337 794.564L600.906 833.133L639.328 794.71L639.377 794.759L639.572 794.564L678.141 833.133L716.564 794.71L716.612 794.759L716.807 794.564L755.376 833.133L793.799 794.71L793.848 794.759L794.043 794.564L832.612 833.133L871.034 794.71L871.083 794.759L871.278 794.564L909.847 833.133L948.27 794.71L948.318 794.759L948.514 794.564L987.083 833.133L1025.51 794.71L1025.55 794.759L1025.75 794.564L1064.32 833.133L1102.74 794.71L1102.79 794.759L1102.98 794.564L1141.55 833.133L1179.98 794.71L1180.02 794.759L1180.22 794.564L1218.79 833.133L1257.21 794.71L1257.26 794.76L1257.46 794.564L1296.02 833.133L1334.45 794.71L1334.5 794.759L1334.69 794.564L1373.26 833.133L1411.68 794.71L1411.73 794.759L1411.93 794.564L1450.49 833.133L1488.92 794.71L1488.97 794.759L1489.16 794.564L1527.73 833.133L1566.15 794.71L1571 799.558L1527.7 842.861L1522.85 838.014L1522.88 837.98L1489.11 804.21L1450.46 842.861L1445.61 838.014L1445.65 837.98L1411.88 804.21L1373.23 842.861L1368.38 838.014L1368.41 837.98L1334.64 804.21L1295.99 842.861L1291.14 838.014L1291.18 837.98L1257.41 804.21L1218.76 842.861L1213.91 838.014L1213.94 837.98L1180.17 804.21L1141.52 842.861L1136.67 838.014L1136.71 837.98L1102.94 804.21L1064.28 842.861L1059.44 838.014L1059.47 837.98L1025.7 804.21L987.049 842.861L982.202 838.014L982.235 837.98L948.465 804.21L909.814 842.861L904.966 838.014L905 837.98L871.23 804.21L832.579 842.861L827.731 838.014L827.765 837.98L793.994 804.21L755.343 842.861L750.496 838.014L750.529 837.98L716.759 804.21L678.108 842.861L673.26 838.014L673.294 837.98L639.524 804.21L600.873 842.861L596.025 838.014L596.059 837.98L562.288 804.21L523.637 842.861L518.789 838.014L518.823 837.98L485.053 804.21L446.402 842.861L441.554 838.014L441.588 837.98L407.817 804.21L369.166 842.861L364.319 838.014L364.352 837.98L330.582 804.21L291.931 842.861L287.083 838.014L287.117 837.98L253.347 804.21L214.696 842.861L209.848 838.014L209.882 837.98L176.111 804.21L137.46 842.861L132.613 838.014L132.646 837.98L98.8758 804.21L60.2247 842.861L55.3773 838.014L55.4107 837.98L21.4119 803.981L-17.4676 842.861L-22.3149 838.014L-22.2816 837.98L-56.509 803.753L-95.617 842.861L-100.464 838.014L-100.431 837.98L-139 799.411L-134.153 794.564Z" fill="#F8F8F8"/>
<path fill-rule="evenodd" clip-rule="evenodd" d="M-134.153 863L-95.5837 901.569L-57.1612 863.146L-56.6555 863.652L-56.0033 863L-17.4343 901.569L20.9882 863.146L21.2654 863.424L21.6892 863L60.2581 901.569L98.6805 863.146L98.7293 863.195L98.9247 863L137.494 901.569L175.916 863.146L175.965 863.195L176.16 863L214.729 901.569L253.152 863.146L253.2 863.195L253.395 863L291.964 901.569L330.387 863.146L330.435 863.195L330.631 863L369.2 901.569L407.622 863.146L407.671 863.195L407.866 863L446.435 901.569L484.857 863.146L484.906 863.195L485.101 863L523.67 901.569L562.093 863.146L562.142 863.195L562.337 863L600.906 901.569L639.328 863.146L639.377 863.195L639.572 863L678.141 901.569L716.564 863.146L716.612 863.195L716.807 863L755.376 901.569L793.799 863.146L793.848 863.195L794.043 863L832.612 901.569L871.034 863.146L871.083 863.195L871.278 863L909.847 901.569L948.27 863.146L948.318 863.195L948.514 863L987.083 901.569L1025.51 863.146L1025.55 863.195L1025.75 863L1064.32 901.569L1102.74 863.146L1102.79 863.195L1102.98 863L1141.55 901.569L1179.98 863.146L1180.02 863.195L1180.22 863L1218.79 901.569L1257.21 863.146L1257.26 863.196L1257.46 863L1296.02 901.569L1334.45 863.146L1334.5 863.195L1334.69 863L1373.26 901.569L1411.68 863.146L1411.73 863.195L1411.93 863L1450.49 901.569L1488.92 863.146L1488.97 863.195L1489.16 863L1527.73 901.569L1566.15 863.146L1571 867.994L1527.7 911.297L1522.85 906.45L1522.88 906.416L1489.11 872.646L1450.46 911.297L1445.61 906.45L1445.65 906.416L1411.88 872.646L1373.23 911.297L1368.38 906.45L1368.41 906.416L1334.64 872.646L1295.99 911.297L1291.14 906.45L1291.18 906.416L1257.41 872.646L1218.76 911.297L1213.91 906.45L1213.94 906.416L1180.17 872.646L1141.52 911.297L1136.67 906.45L1136.71 906.416L1102.94 872.646L1064.28 911.297L1059.44 906.45L1059.47 906.416L1025.7 872.646L987.049 911.297L982.202 906.45L982.235 906.416L948.465 872.646L909.814 911.297L904.966 906.45L905 906.416L871.23 872.646L832.579 911.297L827.731 906.45L827.765 906.416L793.994 872.646L755.343 911.297L750.496 906.45L750.529 906.416L716.759 872.646L678.108 911.297L673.26 906.45L673.294 906.416L639.524 872.646L600.873 911.297L596.025 906.45L596.059 906.416L562.288 872.646L523.637 911.297L518.789 906.45L518.823 906.416L485.053 872.646L446.402 911.297L441.554 906.45L441.588 906.416L407.817 872.646L369.166 911.297L364.319 906.45L364.352 906.416L330.582 872.646L291.931 911.297L287.083 906.45L287.117 906.416L253.347 872.646L214.696 911.297L209.848 906.45L209.882 906.416L176.111 872.646L137.46 911.297L132.613 906.45L132.646 906.416L98.8758 872.646L60.2247 911.297L55.3773 906.45L55.4107 906.416L21.4119 872.417L-17.4676 911.297L-22.3149 906.45L-22.2816 906.416L-56.509 872.189L-95.617 911.297L-100.464 906.45L-100.431 906.416L-139 867.847L-134.153 863Z" fill="#F8F8F8"/>
<path fill-rule="evenodd" clip-rule="evenodd" d="M-134.153 931.436L-95.5837 970.005L-57.1612 931.583L-56.6555 932.088L-56.0033 931.436L-17.4343 970.005L20.9882 931.583L21.2654 931.86L21.6892 931.436L60.2581 970.005L98.6805 931.583L98.7293 931.631L98.9247 931.436L137.494 970.005L175.916 931.583L175.965 931.631L176.16 931.436L214.729 970.005L253.152 931.583L253.2 931.631L253.395 931.436L291.964 970.005L330.387 931.583L330.435 931.631L330.631 931.436L369.2 970.005L407.622 931.583L407.671 931.631L407.866 931.436L446.435 970.005L484.857 931.583L484.906 931.631L485.101 931.436L523.67 970.005L562.093 931.583L562.142 931.632L562.337 931.436L600.906 970.005L639.328 931.583L639.377 931.631L639.572 931.436L678.141 970.005L716.564 931.583L716.612 931.631L716.807 931.436L755.376 970.005L793.799 931.583L793.848 931.632L794.043 931.436L832.612 970.005L871.034 931.583L871.083 931.631L871.278 931.436L909.847 970.005L948.27 931.583L948.318 931.631L948.514 931.436L987.083 970.005L1025.51 931.583L1025.55 931.631L1025.75 931.436L1064.32 970.005L1102.74 931.583L1102.79 931.631L1102.98 931.436L1141.55 970.005L1179.98 931.583L1180.02 931.631L1180.22 931.436L1218.79 970.005L1257.21 931.583L1257.26 931.632L1257.46 931.436L1296.02 970.005L1334.45 931.583L1334.5 931.631L1334.69 931.436L1373.26 970.005L1411.68 931.583L1411.73 931.631L1411.93 931.436L1450.49 970.005L1488.92 931.583L1488.97 931.631L1489.16 931.436L1527.73 970.005L1566.15 931.583L1571 936.43L1527.7 979.733L1522.85 974.886L1522.88 974.852L1489.11 941.082L1450.46 979.733L1445.61 974.886L1445.65 974.852L1411.88 941.082L1373.23 979.733L1368.38 974.886L1368.41 974.852L1334.64 941.082L1295.99 979.733L1291.14 974.886L1291.18 974.852L1257.41 941.082L1218.76 979.733L1213.91 974.886L1213.94 974.852L1180.17 941.082L1141.52 979.733L1136.67 974.886L1136.71 974.852L1102.94 941.082L1064.28 979.733L1059.44 974.886L1059.47 974.852L1025.7 941.082L987.049 979.733L982.202 974.886L982.235 974.852L948.465 941.082L909.814 979.733L904.966 974.886L905 974.852L871.23 941.082L832.579 979.733L827.731 974.886L827.765 974.852L793.994 941.082L755.343 979.733L750.496 974.886L750.529 974.852L716.759 941.082L678.108 979.733L673.26 974.886L673.294 974.852L639.524 941.082L600.873 979.733L596.025 974.886L596.059 974.852L562.288 941.082L523.637 979.733L518.789 974.886L518.823 974.852L485.053 941.082L446.402 979.733L441.554 974.886L441.588 974.852L407.817 941.082L369.166 979.733L364.319 974.886L364.352 974.852L330.582 941.082L291.931 979.733L287.083 974.886L287.117 974.852L253.347 941.082L214.696 979.733L209.848 974.886L209.882 974.852L176.111 941.082L137.46 979.733L132.613 974.886L132.646 974.852L98.8758 941.082L60.2247 979.733L55.3773 974.886L55.4107 974.852L21.4119 940.854L-17.4676 979.733L-22.3149 974.886L-22.2816 974.852L-56.509 940.625L-95.617 979.733L-100.464 974.886L-100.431 974.852L-139 936.283L-134.153 931.436Z" fill="#F8F8F8"/>
<path fill-rule="evenodd" clip-rule="evenodd" d="M-134.153 999.872L-95.5837 1038.44L-57.1612 1000.02L-56.6555 1000.52L-56.0033 999.872L-17.4343 1038.44L20.9882 1000.02L21.2654 1000.3L21.6892 999.872L60.2581 1038.44L98.6805 1000.02L98.7293 1000.07L98.9247 999.872L137.494 1038.44L175.916 1000.02L175.965 1000.07L176.16 999.872L214.729 1038.44L253.152 1000.02L253.2 1000.07L253.395 999.872L291.964 1038.44L330.387 1000.02L330.435 1000.07L330.631 999.872L369.2 1038.44L407.622 1000.02L407.671 1000.07L407.866 999.872L446.435 1038.44L484.857 1000.02L484.906 1000.07L485.101 999.872L523.67 1038.44L562.093 1000.02L562.142 1000.07L562.337 999.872L600.906 1038.44L639.328 1000.02L639.377 1000.07L639.572 999.872L678.141 1038.44L716.564 1000.02L716.612 1000.07L716.807 999.872L755.376 1038.44L793.799 1000.02L793.848 1000.07L794.043 999.872L832.612 1038.44L871.034 1000.02L871.083 1000.07L871.278 999.872L909.847 1038.44L948.27 1000.02L948.318 1000.07L948.514 999.872L987.083 1038.44L1025.51 1000.02L1025.55 1000.07L1025.75 999.872L1064.32 1038.44L1102.74 1000.02L1102.79 1000.07L1102.98 999.872L1141.55 1038.44L1179.98 1000.02L1180.02 1000.07L1180.22 999.872L1218.79 1038.44L1257.21 1000.02L1257.26 1000.07L1257.46 999.872L1296.02 1038.44L1334.45 1000.02L1334.5 1000.07L1334.69 999.872L1373.26 1038.44L1411.68 1000.02L1411.73 1000.07L1411.93 999.872L1450.49 1038.44L1488.92 1000.02L1488.97 1000.07L1489.16 999.872L1527.73 1038.44L1566.15 1000.02L1571 1004.87L1527.7 1048.17L1522.85 1043.32L1522.88 1043.29L1489.11 1009.52L1450.46 1048.17L1445.61 1043.32L1445.65 1043.29L1411.88 1009.52L1373.23 1048.17L1368.38 1043.32L1368.41 1043.29L1334.64 1009.52L1295.99 1048.17L1291.14 1043.32L1291.18 1043.29L1257.41 1009.52L1218.76 1048.17L1213.91 1043.32L1213.94 1043.29L1180.17 1009.52L1141.52 1048.17L1136.67 1043.32L1136.71 1043.29L1102.94 1009.52L1064.28 1048.17L1059.44 1043.32L1059.47 1043.29L1025.7 1009.52L987.049 1048.17L982.202 1043.32L982.235 1043.29L948.465 1009.52L909.814 1048.17L904.966 1043.32L905 1043.29L871.23 1009.52L832.579 1048.17L827.731 1043.32L827.765 1043.29L793.994 1009.52L755.343 1048.17L750.496 1043.32L750.529 1043.29L716.759 1009.52L678.108 1048.17L673.26 1043.32L673.294 1043.29L639.524 1009.52L600.873 1048.17L596.025 1043.32L596.059 1043.29L562.288 1009.52L523.637 1048.17L518.789 1043.32L518.823 1043.29L485.053 1009.52L446.402 1048.17L441.554 1043.32L441.588 1043.29L407.817 1009.52L369.166 1048.17L364.319 1043.32L364.352 1043.29L330.582 1009.52L291.931 1048.17L287.083 1043.32L287.117 1043.29L253.347 1009.52L214.696 1048.17L209.848 1043.32L209.882 1043.29L176.111 1009.52L137.46 1048.17L132.613 1043.32L132.646 1043.29L98.8758 1009.52L60.2247 1048.17L55.3773 1043.32L55.4107 1043.29L21.4119 1009.29L-17.4676 1048.17L-22.3149 1043.32L-22.2816 1043.29L-56.509 1009.06L-95.617 1048.17L-100.464 1043.32L-100.431 1043.29L-139 1004.72L-134.153 999.872Z" fill="#F8F8F8"/>
</g>
<defs>
<clipPath id="clip0">
<rect width="1440" height="1024" fill="white"/>
</clipPath>
</defs>
</svg>
